<svg width="28" height="10" viewBox="0 0 28 10" fill="none" xmlns="http://www.w3.org/2000/svg">
<path d="M12.7475 8.47806C12.6915 8.41111 12.6156 8.44009 12.5486 8.44009C9.69665 8.43909 6.84467 8.44108 3.99269 8.43709C3.1333 8.43609 2.36384 8.1463 1.67833 7.64165C0.839923 7.02509 0.312296 6.19468 0.0934514 5.18039C-0.0864212 4.34299 -0.00547853 3.52457 0.326286 2.72913C0.545132 2.2045 0.862906 1.74982 1.26362 1.3541C1.76827 0.855458 2.37783 0.533686 3.05835 0.340822C3.42109 0.237895 3.79183 0.207916 4.16657 0.207916C10.7089 0.208916 17.2513 0.205918 23.7937 0.211914C24.709 0.212913 25.5214 0.542679 26.2339 1.11128C26.9874 1.71185 27.4701 2.4923 27.6759 3.42963C27.9147 4.52086 27.7419 5.55513 27.1483 6.50646C26.5367 7.48576 25.6553 8.09333 24.5361 8.35415C24.3103 8.40711 24.0805 8.44109 23.8456 8.44109C20.9717 8.44009 18.0977 8.44009 15.2237 8.44109C15.1568 8.44109 15.0808 8.41211 15.0249 8.47906C14.7541 7.93744 14.4843 7.39483 14.2444 6.83922C15.5065 6.83922 16.7696 6.83822 18.0317 6.83822C19.4048 6.83822 20.7778 6.83822 22.1498 6.83822C22.6825 6.83822 23.2161 6.84322 23.7487 6.83722C24.5671 6.82823 25.2057 6.46149 25.6803 5.81095C26.0441 5.3133 26.194 4.7517 26.136 4.13114C26.0631 3.3427 25.7123 2.72214 25.0698 2.26446C24.6061 1.93369 24.0745 1.82477 23.5199 1.81078C23.0632 1.79879 22.6065 1.80878 22.1488 1.80878C20.7758 1.80878 19.4038 1.80878 18.0307 1.80878C16.6477 1.80978 15.2657 1.81078 13.8827 1.81178C13.5349 1.81078 13.1862 1.80778 12.8384 1.80878C11.8052 1.80978 10.7709 1.81178 9.73762 1.81378C9.37987 1.81178 9.02213 1.80878 8.66438 1.80878C7.63911 1.80978 6.61483 1.81178 5.58956 1.81378C5.03995 1.81378 4.49034 1.81478 3.94073 1.81178C3.74886 1.81078 3.56299 1.84776 3.38012 1.89772C2.02209 2.27046 1.22865 3.80537 1.7123 5.12843C2.05106 6.05777 2.71559 6.62537 3.68391 6.79025C4.31146 6.89718 4.95401 6.83123 5.58956 6.83123C5.94731 6.83322 6.30505 6.83622 6.6628 6.83622C7.68807 6.83522 8.71235 6.83322 9.73762 6.83123C9.80258 6.83322 9.86753 6.83622 9.93248 6.83622C11.1316 6.83722 12.3298 6.83822 13.5289 6.83922C13.2841 7.39383 13.0193 7.93844 12.7475 8.47806Z" fill="#E5E5E5"/>
<path d="M14.2445 6.83825C14.4844 7.39485 14.7542 7.93647 15.025 8.47808C15.2618 8.98173 15.4977 9.48537 15.7395 10C14.4984 10 13.2732 10 12.0331 10C12.2749 9.48537 12.5108 8.98173 12.7476 8.47808C13.0194 7.93747 13.2842 7.39385 13.5291 6.84124C13.648 6.60841 13.7669 6.37657 13.8858 6.14374C14.0057 6.37557 14.1246 6.60641 14.2445 6.83825Z" fill="#205874"/>
<path d="M5.5907 1.8138C6.61597 1.8118 7.64025 1.80981 8.66552 1.80881C9.02327 1.80881 9.38101 1.8118 9.73876 1.8138C9.73876 3.48662 9.73876 5.15943 9.73876 6.83225C8.71349 6.83425 7.68921 6.83625 6.66394 6.83725C6.30619 6.83725 5.94844 6.83425 5.5907 6.83225C5.5907 5.15943 5.5907 3.48662 5.5907 1.8138Z" fill="#00D300"/>
<path d="M9.73761 6.83225C9.73761 5.15943 9.73761 3.48662 9.73761 1.8138C10.7709 1.8118 11.8051 1.80981 12.8384 1.80881C13.1862 1.80881 13.5349 1.81081 13.8827 1.81181C13.8837 3.25578 13.8837 4.69976 13.8847 6.14374C13.7658 6.37657 13.6468 6.60841 13.5279 6.84124C12.3288 6.84024 11.1306 6.83924 9.93147 6.83825C9.86752 6.83725 9.80256 6.83425 9.73761 6.83225Z" fill="#FE0000"/>
<path d="M13.8856 6.14374C13.8846 4.69976 13.8846 3.25578 13.8836 1.81181C15.2666 1.81081 16.6486 1.80981 18.0316 1.80881C18.0316 3.48462 18.0316 5.16143 18.0316 6.83725C16.7695 6.83725 15.5064 6.83824 14.2443 6.83824C14.1244 6.60641 14.0055 6.37557 13.8856 6.14374Z" fill="#A7ACAD"/>
<path d="M18.0317 6.83725C18.0317 5.16143 18.0317 3.48462 18.0317 1.80881C19.4048 1.80881 20.7768 1.80881 22.1498 1.80881C22.1498 3.48462 22.1498 5.16143 22.1498 6.83725C20.7768 6.83725 19.4048 6.83725 18.0317 6.83725Z" fill="#E7EEF0"/>
<path d="M5.59059 1.81376C5.59059 3.48658 5.59059 5.15939 5.59059 6.83221C4.95504 6.83121 4.31249 6.89816 3.68494 6.79124C2.71663 6.62635 2.05309 6.05776 1.71334 5.12941C1.23068 3.80635 2.02312 2.27144 3.38115 1.8987C3.56402 1.84874 3.74889 1.81176 3.94176 1.81276C4.49137 1.81476 5.04098 1.81376 5.59059 1.81376Z" fill="#205874"/>
<path d="M22.1499 6.8372C22.1499 5.16139 22.1499 3.48458 22.1499 1.80876C22.6066 1.80876 23.0643 1.79977 23.5209 1.81076C24.0756 1.82475 24.6072 1.93367 25.0708 2.26444C25.7134 2.72212 26.0651 3.34268 26.1371 4.13112C26.1941 4.75168 26.0442 5.31328 25.6814 5.81093C25.2068 6.46147 24.5682 6.82721 23.7498 6.8372C23.2162 6.8422 22.6825 6.8372 22.1499 6.8372Z" fill="#FEFEFE"/>
</svg>
